<svg id="Layer_2" data-name="Layer 2" xmlns="http://www.w3.org/2000/svg" viewBox="0 0 422.44 333.02"><defs><style>.cls-1{fill:#e92125;}.cls-2,.cls-4{fill:#71706e;}.cls-3{fill:#0c92ce;}.cls-4{font-size:109.75px;font-family:Arial-Black, Arial;font-weight:800;}.cls-5{font-size:29.26px;}.cls-14,.cls-5{fill:#231f20;font-family:ProductSans-Bold, Product Sans;font-weight:700;}.cls-6{letter-spacing:0.01em;}.cls-7{letter-spacing:0em;}.cls-8{letter-spacing:0em;}.cls-9{letter-spacing:-0.01em;}.cls-10{letter-spacing:-0.02em;}.cls-11{letter-spacing:0em;}.cls-12{letter-spacing:-0.02em;}.cls-13{letter-spacing:0em;}.cls-14{font-size:21.95px;}</style></defs><path class="cls-1" d="M190.14,112.86a99,99,0,0,1,10.56-2.29c15.57-2.48,50.08-4.1,108.84,36.83C374.35,192.55,420,255.58,440.78,286.85c-5.56-10.28-82.47-150.61-149.58-186.43-10.69-5.71-30.52-16.3-55.35-12.48C213.15,91.43,197.54,105.22,190.14,112.86Z" transform="translate(-36.51 -87.13)"/><path class="cls-2" d="M101.79,407.49a62.32,62.32,0,0,1-15.63-13.68c-26-32.11-11.28-82.87,1-123.09,9.38-30.79,28-77.82,66.92-128.46-34.32,37.06-85.91,99.93-109.91,170C36.5,334.59,32.56,355,42.2,373.3,56.8,401,93.38,406.44,101.79,407.49Z" transform="translate(-36.51 -87.13)"/><path class="cls-3" d="M454.72,325.13a67.93,67.93,0,0,1-4.91,14.07c-7.49,15.68-29.46,45.91-156.92,64.17a943.79,943.79,0,0,1-138,9.43c30.68,3.44,56.39,5.35,75.06,6.48,0,0,137.89,8.32,204-26.55,14.89-7.84,20.79-19.8,20.79-19.8a37.6,37.6,0,0,0,2.69-7.21,78,78,0,0,0,.44-28.47A75.54,75.54,0,0,0,454.72,325.13Z" transform="translate(-36.51 -87.13)"/><text class="cls-4" transform="translate(68.36 230.72) scale(1.18 1)">A<tspan class="cls-1" x="85.37" y="0">B</tspan><tspan class="cls-3" x="170.74" y="0">C</tspan></text><text class="cls-5" transform="translate(61.49 275.73) scale(0.73 1)">As<tspan class="cls-6" x="35.08" y="0">s</tspan><tspan class="cls-7" x="49.35" y="0">oc</tspan><tspan class="cls-8" x="82.15" y="0">i</tspan><tspan class="cls-9" x="89.58" y="0">a</tspan><tspan class="cls-6" x="104.94" y="0">t</tspan><tspan class="cls-8" x="116.82" y="0">i</tspan><tspan class="cls-9" x="124.25" y="0">o</tspan><tspan x="140.8" y="0">n </tspan><tspan class="cls-10" x="164.03" y="0">o</tspan><tspan x="180.45" y="0">f Bei</tspan><tspan class="cls-8" x="240.74" y="0">n</tspan><tspan class="cls-11" x="257.39" y="0">g</tspan><tspan class="cls-12" x="274.85" y="0"> </tspan><tspan class="cls-9" x="280.7" y="0">C</tspan><tspan x="301.89" y="0">ivili</tspan><tspan class="cls-9" x="348.02" y="0">za</tspan><tspan class="cls-13" x="377.1" y="0">t</tspan><tspan class="cls-8" x="388.98" y="0">i</tspan><tspan class="cls-9" x="396.41" y="0">o</tspan><tspan x="412.97" y="0">n</tspan></text><text class="cls-14" transform="translate(328.23 68.93) scale(0.97 1)">TM</text></svg>