<svg width="18" height="18" viewBox="0 0 18 18" fill="none" xmlns="http://www.w3.org/2000/svg">
<path d="M9 17C13.4182 17 17 13.4182 17 9C17 4.58172 13.4182 1 9 1C4.58172 1 1 4.58172 1 9C1 13.4182 4.58172 17 9 17Z" stroke="black" stroke-width="1.5" stroke-linecap="round" stroke-linejoin="round"/>
<path d="M1.39999 9.3999L5.79999 10.9999L4.99999 13.7999L5.79999 16.1999" stroke="black" stroke-width="1.5" stroke-linecap="round" stroke-linejoin="round"/>
<path d="M13 15.7999L12.6 13.7999L10.6 12.9999V10.1999L13 9.3999L16.6 9.7999" stroke="black" stroke-width="1.5" stroke-linecap="round" stroke-linejoin="round"/>
<path d="M14.6 3.80005L14.2 5.00005L11.4 5.40005V7.80005L13.4 7.00005H15L16.6 7.80005" stroke="black" stroke-width="1.5" stroke-linecap="round" stroke-linejoin="round"/>
<path d="M1.39999 7.80005L3.39999 6.20005L5.39999 5.80005L6.99999 3.40005L6.19999 1.80005" stroke="black" stroke-width="1.5" stroke-linecap="round" stroke-linejoin="round"/>
</svg>
