<svg width="23" height="24" viewBox="0 0 23 24" fill="none" xmlns="http://www.w3.org/2000/svg">
<path d="M11.1688 16.4444C13.6234 16.4444 15.6133 14.4545 15.6133 12C15.6133 9.54539 13.6234 7.55554 11.1688 7.55554C8.71424 7.55554 6.7244 9.54539 6.7244 12C6.7244 14.4545 8.71424 16.4444 11.1688 16.4444Z" stroke="black" stroke-width="2.08334" stroke-linecap="round" stroke-linejoin="round"/>
<path d="M1.16882 16.4444V7.55556C1.16882 4.48731 3.65613 2 6.72438 2H15.6133C18.6815 2 21.1688 4.48731 21.1688 7.55556V16.4444C21.1688 19.5127 18.6815 22 15.6133 22H6.72438C3.65613 22 1.16882 19.5127 1.16882 16.4444Z" stroke="black" stroke-width="2.08334"/>
<path d="M17.2799 5.89998L17.291 5.88763" stroke="black" stroke-width="2.08334" stroke-linecap="round" stroke-linejoin="round"/>
</svg>
