<svg width="25" height="20" viewBox="0 0 25 20" fill="none" xmlns="http://www.w3.org/2000/svg">
<path d="M23.1688 1.0382C23.1688 1.0382 21.1509 2.23031 20.0288 2.5682C19.4265 1.87571 18.6261 1.38489 17.7358 1.16212C16.8455 0.939356 15.9083 0.995386 15.0509 1.32265C14.1935 1.64991 13.4572 2.2326 12.9418 2.99191C12.4263 3.75123 12.1565 4.65053 12.1688 5.5682V6.5682C10.4114 6.61376 8.67009 6.22401 7.09983 5.43364C5.52956 4.64327 4.17914 3.47683 3.16882 2.0382C3.16882 2.0382 -0.831177 11.0382 8.16882 15.0382C6.10935 16.4361 3.65598 17.1371 1.16882 17.0382C10.1688 22.0382 21.1688 17.0382 21.1688 5.5382C21.1679 5.25965 21.1411 4.98179 21.0888 4.7082C22.1094 3.70169 23.1688 1.0382 23.1688 1.0382Z" stroke="black" stroke-width="2" stroke-linecap="round" stroke-linejoin="round"/>
</svg>
